<svg width="28" height="33" viewBox="0 0 28 33" fill="none" xmlns="http://www.w3.org/2000/svg">
<path d="M0.875 29.9574H27.125V32.1686H0.875V29.9574ZM21.9688 11.1618H6.5C6.00287 11.1624 5.52625 11.3956 5.17472 11.8101C4.8232 12.2247 4.6255 12.7868 4.625 13.3731V22.2181C4.62649 23.6837 5.12083 25.0887 5.99958 26.1251C6.87834 27.1614 8.06975 27.7444 9.3125 27.7462H16.8125C18.0552 27.7444 19.2467 27.1614 20.1254 26.1251C21.0042 25.0887 21.4985 23.6837 21.5 22.2181V21.1124H21.9688C23.0876 21.1124 24.1607 20.5882 24.9519 19.6552C25.743 18.7221 26.1875 17.4567 26.1875 16.1371C26.1875 14.8176 25.743 13.5521 24.9519 12.6191C24.1607 11.686 23.0876 11.1618 21.9688 11.1618ZM19.625 22.2181C19.6243 23.0975 19.3277 23.9406 18.8004 24.5625C18.2731 25.1843 17.5582 25.534 16.8125 25.5349H9.3125C8.56681 25.534 7.85187 25.1843 7.32458 24.5625C6.7973 23.9406 6.50074 23.0975 6.5 22.2181V13.3731H19.625V22.2181ZM21.9688 18.9012H21.5V13.3731H21.9688C22.5904 13.3731 23.1865 13.6643 23.626 14.1827C24.0656 14.701 24.3125 15.4041 24.3125 16.1371C24.3125 16.8702 24.0656 17.5733 23.626 18.0916C23.1865 18.61 22.5904 18.9012 21.9688 18.9012ZM16.8125 8.95059H14.9375V8.78917C14.9389 8.37823 14.8425 7.97507 14.6594 7.62545C14.4763 7.27582 14.2138 6.99374 13.9016 6.81122L11.3844 5.32858C10.7602 4.96322 10.2353 4.39898 9.86907 3.6998C9.50288 3.00062 9.31007 2.19446 9.3125 1.37266V0.105621H11.1875V1.37266C11.1863 1.78355 11.2828 2.1866 11.4659 2.53618C11.6489 2.88576 11.9114 3.16789 12.2234 3.35062L14.7397 4.83326C15.364 5.19856 15.889 5.76276 16.2554 6.46193C16.6217 7.16109 16.8147 7.96729 16.8125 8.78917V8.95059Z" fill="white"/>
</svg>
