<svg xmlns="http://www.w3.org/2000/svg" viewBox="50 50 100 100">
  <path
    d="M138.832 137.698h-77c-5.2 0-9.5-4.3-9.5-9.5v-57c0-5.2 4.3-9.5 9.5-9.5h77c5.2 0 9.5 4.3 9.5 9.5v57c0 5.2-4.3 9.5-9.5 9.5zm-77-72c-3 0-5.5 2.5-5.5 5.5v57c0 3 2.5 5.5 5.5 5.5h77c3 0 5.5-2.5 5.5-5.5v-57c0-3-2.5-5.5-5.5-5.5h-77z" />
  <path
    d="M100.332 112.098c-.5 0-1-.2-1.4-.6l-31.6-31.6c-.8-.8-.8-2 0-2.8.8-.8 2-.8 2.8 0l30.2 30.1 30.8-30.8c.8-.8 2-.8 2.8 0 .8.8.8 2 0 2.8l-32.2 32.3c-.4.4-.9.6-1.4.6z" />
  <path
    d="M69.032 122.198c-.5 0-1-.2-1.4-.6-.8-.8-.8-2 0-2.8l20.7-20.7c.8-.8 2-.8 2.8 0 .8.8.8 2 0 2.8l-20.6 20.7c-.4.4-1 .6-1.5.6zM132.632 122.198c-.5 0-1-.2-1.4-.6l-20.7-20.7c-.8-.8-.8-2 0-2.8.8-.8 2-.8 2.8 0l20.7 20.7c.8.8.8 2 0 2.8-.4.4-.9.6-1.4.6z" />
</svg>