<svg xmlns="http://www.w3.org/2000/svg" viewBox="0 0 24 24">
  <path
    d="M15.2 22.001c-.249 0-.501-.016-.753-.048-2.697-.341-5.284-1.733-7.69-4.14-2.406-2.405-3.798-4.992-4.14-7.69-.284-2.247.724-4.434 2.633-5.706l3.049-2.032 4.822 4.822-3.154 3.154c.134.411.55 1.312 1.74 2.503 1.19 1.19 2.091 1.605 2.522 1.747l3.135-3.161 4.822 4.822-2.033 3.049c-1.129 1.695-2.979 2.68-4.953 2.68zM8.044 4.959 6.359 6.081c-1.253.836-1.943 2.324-1.757 3.791.284 2.247 1.485 4.443 3.569 6.527 2.085 2.085 4.281 3.286 6.527 3.569 1.473.188 2.956-.503 3.791-1.757l1.123-1.686-2.248-2.248-1.74 1.739a1.979 1.979 0 0 1-2.02.494c-.732-.241-1.902-.824-3.312-2.233-1.408-1.407-1.991-2.577-2.232-3.31a1.977 1.977 0 0 1 .494-2.02l1.74-1.74-2.25-2.248z" />
</svg>