<svg version="1.2" xmlns="http://www.w3.org/2000/svg" viewBox="0 0 1467 1466" width="1467" height="1466">
	<title>spotify-1-svg</title>
	<style>
		.s0 { fill: #2ebd59 } 
	</style>
	<path id="Layer" fill-rule="evenodd" class="s0" d="m733 0.1c404.7 0 732.7 328.1 732.7 732.7 0 404.7-328 732.8-732.7 732.8-404.7 0-732.8-328.1-732.8-732.8 0-404.7 328.1-732.7 732.8-732.7zm336 1056.8c13.2-21.5 6.4-49.6-15.1-62.8-193.2-118.1-432.6-145.5-711.7-81.7-24.7 5.6-40 30.1-34.4 54.7 5.6 24.5 30.1 39.9 54.7 34.3 255.1-58.3 471.6-34.5 643.7 70.7 21.5 13.1 49.6 6.3 62.8-15.2zm89.7-199.5c16.5-26.9 8-62-18.8-78.6-226.2-139-557-178.1-823.1-97.3-30.2 9.1-47.2 41-38.1 71.2 9.1 30.2 41 47.2 71.3 38.1 232.9-70.7 533.2-35.7 730.1 85.4 26.9 16.5 62 8 78.6-18.8zm7.7-207.8c32.5 19.3 74.7 8.6 93.9-24 19.3-32.5 8.6-74.6-23.9-93.9-271.9-161.4-702.2-176.6-961.1-98-36.2 11-56.6 49.3-45.6 85.5 10.9 36.2 49.2 56.6 85.4 45.6 225.5-68.4 615.1-55.5 851.3 84.8zm827.7 27c154.1 37.5 217 95.7 216.7 200.7 0 124.5-95.1 205-242.3 205-104.1 0-200.5-37-278.9-107-3.4-3-3.7-8.1-0.8-11.5l69.2-82.4c1.5-1.7 3.5-2.8 5.7-3 2.1-0.1 4.4 0.6 6.1 2 67.4 58.4 127.6 83.3 201.5 83.3 66.5 0 107.8-28.8 107.8-75.1 0-41.8-20.4-65.1-141.5-93-142.2-34.4-224.6-78.9-224.6-204.7 0-117.3 95.5-199.3 232.1-199.3 92.9 0 172.4 27.6 242.9 84.2 3.5 2.7 4.2 7.7 1.6 11.3l-61.8 87.1c-1.3 1.8-3.2 3-5.4 3.3-2.2 0.4-4.5-0.2-6.3-1.5-59.3-44.2-115.9-65.7-172.9-65.7-58.9 0-98.4 28.3-98.4 70.3 0 44.5 22.5 65.7 149 95.9zm549.9-124.9c118.6 0 238.6 91.3 238.4 265.8 0 174.4-120 265.7-238.5 265.7-63.8 0-116.2-23.7-159.3-72.1v203.3c0 4.5-3.7 8.3-8.3 8.3h-113.3c-4.6 0-8.3-3.8-8.3-8.3v-644.1c0-4.5 3.7-8.3 8.3-8.3h113.3c4.6 0 8.3 3.8 8.3 8.3v58c43.1-51.5 95.5-76.6 159.3-76.6zm106.7 265.8c0-87.5-56-150.9-133.1-150.9-77.5 0-135.9 64.9-135.9 150.9 0 86 58.4 150.8 135.9 150.8 78.3 0 133.1-62 133.1-150.8zm439.3-265.8c152.2 0 271.3 116.8 271.3 265.8 0 149.5-120 266.7-273.2 266.7-151.6 0-270.4-116.3-270.4-264.8 0-150.1 119.6-267.7 272.3-267.7zm0 417.5c82 0 141.5-63 141.5-149.9 0-86.6-61.6-151.8-143.4-151.8-81.4 0-140.5 63-140.5 149.9 0 86.5 61.2 151.8 142.4 151.8zm597.5-407.1c4.6 0 8.3 3.7 8.1 8.3v97.3c0 4.6-3.7 8.3-8.2 8.3h-124.7v234.2c0 36.9 16.2 53.5 52.6 53.5 23.5 0 44.6-5.1 66.5-16.1 2.5-1.2 5.6-1.2 8 0.4 2.5 1.5 4 4.2 4 7v92.8c0 2.9-1.6 5.7-4.2 7.1-31.8 18.1-65.5 26.4-106.1 26.4-100 0-150.6-51.6-150.6-153.4v-251.9h-54.5c-4.6 0-8.3-3.7-8.3-8.3v-97.4c0-4.5 3.7-8.3 8.3-8.3h54.5v-127.4c0-4.6 3.7-8.3 8.3-8.3h113.2c4.6 0 8.3 3.7 8.3 8.3v127.4h124.7zm434.2 0.5h193.5c3.4 0 6.5 2.1 7.7 5.3l132.4 345.4 120.8-345.1c1.1-3.3 4.3-5.6 7.8-5.6h118c2.7 0 5.2 1.4 6.8 3.6 1.5 2.3 1.8 5.2 0.9 7.7l-196.6 507.9c-40.7 104.8-87 143.8-170.6 143.8-44.7 0-80.9-9.3-121-31-3.8-2.1-5.4-6.8-3.6-10.7l38.4-84.3c0.9-2.1 2.8-3.7 4.9-4.4 2.2-0.7 4.6-0.5 6.6 0.6 21.5 11.7 42.5 17.7 62.5 17.7 24.7 0 42.8-8.1 61.2-48.9l-162.1-388.5h-105.7v388.5c0 4.6-3.8 8.3-8.3 8.3h-113.3c-4.6 0-8.3-3.7-8.3-8.3v-388.6h-54.4c-4.6 0-8.3-3.7-8.3-8.3v-97.8c0-4.6 3.7-8.3 8.3-8.3h54.4v-24c0-111.4 55.3-170.3 160-170.3 42.9 0 71.7 6.8 94.1 13.5 3.5 1.1 5.9 4.3 5.9 8v95.4c0 2.7-1.3 5.2-3.4 6.8-2.2 1.5-4.9 1.9-7.5 1.1-21.3-7.1-40.2-11.8-63.9-11.8-39.6 0-57.2 20.6-57.2 66.6v15.7zm-251.8-0.5c1.1 0 2.2 0.2 3.2 0.6 1 0.4 1.9 1 2.7 1.8 0.7 0.8 1.3 1.7 1.8 2.7 0.4 1 0.6 2.1 0.6 3.2v494.2c0 4.6-3.7 8.3-8.3 8.3h-113.3c-4.6 0-8.3-3.7-8.3-8.3v-494.2c0-4.6 3.7-8.3 8.3-8.3h113.3zm-56-225.1c44.8 0 81.2 36.3 81.2 81.2 0 44.9-36.3 81.3-81.2 81.3-44.9 0-81.3-36.4-81.3-81.3 0-44.9 36.4-81.2 81.3-81.2zm912.7 304.2c0-43.7 35.3-80.1 80.1-80.1 44.8 0 79.7 36 79.7 79.6 0 43.8-35.3 80.2-80.1 80.2-44.9 0-79.7-36-79.7-79.7zm80.1-72.2c-40.8 0-71.7 32.4-71.7 72.2 0 39.7 30.7 71.8 71.3 71.8 40.8 0 71.8-32.5 71.8-72.3 0-39.7-30.8-71.7-71.4-71.7zm17.7 79.9l22.6 31.6h-19l-20.3-28.9h-17.5v28.9h-15.9v-83.7h37.3c19.4 0 32.2 10 32.2 26.7 0.1 13.7-7.8 22.1-19.3 25.4 0 0-0.1 0-0.1 0q0 0 0 0zm-13.4-37.7h-20.8v26.5h20.8c10.3 0 16.5-5.1 16.5-13.3 0-8.6-6.2-13.2-16.5-13.2q0 0 0 0z"/>
</svg>