<svg width="31" height="31" viewBox="0 0 31 31" fill="none" xmlns="http://www.w3.org/2000/svg">
<path d="M11.125 8.20831H14.0417V15.5H21.3333V18.4166H11.125V8.20831Z" fill="white"/>
<path fill-rule="evenodd" clip-rule="evenodd" d="M30.0833 15.5C30.0833 23.5544 23.5544 30.0833 15.5 30.0833C7.44563 30.0833 0.916672 23.5544 0.916672 15.5C0.916672 7.44561 7.44563 0.916656 15.5 0.916656C23.5544 0.916656 30.0833 7.44561 30.0833 15.5ZM27.1667 15.5C27.1667 18.5942 25.9375 21.5616 23.7496 23.7496C21.5617 25.9375 18.5942 27.1667 15.5 27.1667C12.4058 27.1667 9.43835 25.9375 7.25043 23.7496C5.0625 21.5616 3.83334 18.5942 3.83334 15.5C3.83334 12.4058 5.0625 9.43833 7.25043 7.25041C9.43835 5.06249 12.4058 3.83332 15.5 3.83332C18.5942 3.83332 21.5617 5.06249 23.7496 7.25041C25.9375 9.43833 27.1667 12.4058 27.1667 15.5Z" fill="white"/>
</svg>
